<svg viewBox="0 0 129 39" fill="none" xmlns="http://www.w3.org/2000/svg">
<path d="M110.479 0.0334473H110.901C111.403 0.355061 111.592 0.95069 111.869 1.44855C115.673 8.57722 119.48 15.705 123.291 22.832C125.132 26.3054 127.01 29.7583 128.833 33.2407V33.305C128.724 33.5012 128.64 33.81 128.358 33.7823C126.507 33.7881 124.654 33.792 122.805 33.7823C122.361 33.8003 122.242 33.316 122.074 33.0034C121.737 32.364 121.374 31.7407 121.071 31.0846C120.551 30.2034 120.142 29.2643 119.623 28.3831C119.224 27.5115 118.708 26.7036 118.307 25.8339C118.059 25.3078 117.733 24.8234 117.487 24.2966C117.122 23.5138 116.651 22.7889 116.296 22.0003C115.761 21.0747 115.319 20.1009 114.785 19.1746C114.41 18.3448 113.91 17.58 113.531 16.7522C113.266 16.183 112.912 15.6587 112.648 15.0882C112.306 14.3472 111.85 13.6654 111.522 12.9166C111.359 12.6272 111.247 12.2245 110.904 12.1088C110.683 12.0907 110.374 12.0354 110.25 12.2721C109.671 13.199 109.251 14.2102 108.695 15.1493C108.297 16.0196 107.777 16.8275 107.378 17.6971C107.14 18.202 106.829 18.6684 106.589 19.1714C106.407 19.5496 106.222 19.9272 106.01 20.288C105.631 20.9313 105.359 21.6279 104.975 22.266C104.639 22.8262 104.401 23.4379 104.066 23.9982C103.715 24.5771 103.47 25.21 103.124 25.7896C102.728 26.4495 102.449 27.1712 102.052 27.8299C101.717 28.3901 101.48 29.0012 101.144 29.5614C100.792 30.1404 100.547 30.7726 100.201 31.3528C99.8289 31.9742 99.5581 32.647 99.205 33.2793C99.0854 33.4665 98.9702 33.7025 98.7348 33.7572C98.3727 33.8215 98.0022 33.7836 97.6368 33.7881C96.2217 33.7881 94.8066 33.7823 93.3915 33.7926C93.1342 33.7881 92.828 33.7926 92.6524 33.5713C92.5902 33.3303 92.6249 33.0745 92.7489 32.8586C98.5187 22.0387 104.295 11.223 110.078 0.411665C110.167 0.245712 110.326 0.136364 110.479 0.0334473ZM0.166016 5.22944C0.5616 4.81198 1.16173 4.94835 1.67374 4.93484C6.82642 4.93741 11.9793 4.93741 17.1324 4.93484C18.655 4.87769 20.1742 5.11802 21.6048 5.64239C23.9989 6.50174 26.0591 8.43078 26.8342 10.8841C27.1771 11.8148 27.2517 12.8137 27.3205 13.7966C27.2562 14.847 27.1275 15.9141 26.7332 16.8976C26.2572 18.049 25.5703 19.1579 24.5463 19.8982C24.2993 20.1362 23.9165 20.2372 23.7364 20.5376C25.0994 21.0297 26.272 21.9617 27.1558 23.0996C28.6095 25.001 29.0141 27.5166 28.7639 29.8535C28.6352 31.3921 28.1914 32.9191 27.3887 34.2441C26.8522 35.0681 26.191 35.8233 25.3876 36.397C23.6342 37.6983 21.4639 38.2978 19.322 38.5448C18.8826 38.6039 18.4324 38.5718 18.0014 38.6927H0.56353C0.417031 38.577 0.28507 38.4439 0.170519 38.2965V5.22944H0.166016ZM5.95442 10.0639C5.78911 10.2653 5.83478 10.5406 5.82577 10.7824C5.83799 13.2871 5.7994 15.7925 5.83799 18.3011C5.91269 18.3994 6.00953 18.4786 6.12063 18.5324C6.23173 18.5861 6.35396 18.6129 6.47736 18.6105C9.80863 18.6105 13.1406 18.6066 16.4712 18.6144C16.9349 18.6343 17.391 18.5372 17.8483 18.4729C18.8852 18.3223 19.9208 17.912 20.6444 17.1291C21.1391 16.6371 21.3642 15.9546 21.5308 15.2947C21.5713 14.7601 21.7424 14.223 21.5951 13.6866C21.5251 12.7759 21.1561 11.9139 20.5454 11.2346C19.688 10.4582 18.5411 10.0864 17.4103 9.94816C17.0482 9.91278 16.6809 9.96681 16.3213 9.89477C15.8749 9.79828 15.4208 9.8446 14.9654 9.83945C12.2304 9.83623 9.49796 9.83945 6.76295 9.83559C6.47644 9.83523 6.19536 9.91379 5.95056 10.0626L5.95442 10.0639ZM6.13581 23.6348C6.07873 23.6474 6.02576 23.6743 5.9818 23.7129C5.93784 23.7514 5.90431 23.8004 5.88431 23.8554C5.68362 24.2413 5.72478 24.6916 5.72736 25.1135C5.72736 27.6916 5.72414 30.269 5.72736 32.8471C5.7325 33.2156 5.93834 33.7379 6.38216 33.6929C9.9019 33.6929 13.4216 33.6929 16.9414 33.6929C17.2947 33.7098 17.6489 33.6882 17.9976 33.6286C19.2358 33.5231 20.5177 33.2754 21.561 32.5615C22.3972 31.9671 22.861 30.9849 23.0405 29.9956C23.2778 28.8539 23.189 27.6594 22.8571 26.5447C22.5606 25.6847 21.974 24.9013 21.1519 24.4864C20.0662 23.8882 18.8202 23.7094 17.6033 23.6052C13.8944 23.6052 10.1851 23.6052 6.47543 23.6052C6.36039 23.6027 6.24542 23.6128 6.13259 23.6354L6.13581 23.6348ZM34.5143 4.96186C34.9061 4.89753 35.3068 4.9432 35.703 4.93548C41.17 4.93548 46.6375 4.93548 52.1053 4.93548C54.5766 5.06413 57.0871 5.9267 58.8727 7.68978C60.2299 9.03156 61.0481 10.8731 61.2443 12.7616C61.2404 13.5091 61.2752 14.2591 61.2237 15.0052C60.9889 16.6081 60.3592 18.2213 59.1525 19.3444C58.8116 19.7021 58.4411 20.034 58.0076 20.2752C57.9182 20.3504 57.7284 20.3884 57.7837 20.5408C59.1712 21.1069 60.4242 22.0524 61.2868 23.2848C61.6572 23.793 61.9235 24.3661 62.1802 24.9386C62.6896 26.0899 62.7855 27.3635 62.8594 28.605C62.7951 29.5647 62.7392 30.5347 62.5102 31.4718C62.1638 33.1153 61.3378 34.6191 60.1367 35.793C59.651 36.1938 59.1609 36.5958 58.6161 36.9142C57.08 37.8552 55.2919 38.29 53.5217 38.5223C53.0277 38.6065 52.5189 38.5608 52.0314 38.6921H34.5999C34.3285 38.5338 34.0654 38.2836 34.1001 37.9395C34.1001 27.1899 34.1001 16.4398 34.1001 5.68935C34.0994 5.54236 34.1374 5.39778 34.2104 5.27017C34.2833 5.14257 34.3886 5.03644 34.5156 4.9625L34.5143 4.96186ZM40.3548 9.87483C40.1735 9.91728 39.9766 9.98353 39.8795 10.1559C39.711 10.3946 39.7592 10.7001 39.7509 10.9741C39.7599 13.2691 39.7509 15.5642 39.7509 17.8566C39.7354 18.1557 39.9342 18.4137 40.1619 18.5841C40.8398 18.6439 41.5229 18.5912 42.2035 18.6079C45.098 18.6079 47.9861 18.6118 50.878 18.6079C51.8487 18.4986 52.8521 18.3725 53.7031 17.8554C54.5798 17.4617 55.1343 16.6081 55.4321 15.7243C55.6559 15.0097 55.5788 14.2546 55.5826 13.5181C55.5143 12.9929 55.3559 12.4835 55.1143 12.0123C54.4344 10.8461 53.1255 10.2035 51.8268 10.0138C51.3161 9.88512 50.7854 9.99125 50.2721 9.88512C49.8804 9.80922 49.4803 9.84653 49.0854 9.84331C46.288 9.84009 43.4893 9.84331 40.6938 9.83945C40.5789 9.83985 40.4642 9.8517 40.3516 9.87483H40.3548ZM40.1587 23.6399C39.8782 23.7042 39.7354 23.9975 39.7509 24.2651C39.7509 26.9692 39.7509 29.6727 39.7509 32.3756C39.7547 32.7197 39.7168 33.0793 39.8506 33.4047C39.9149 33.6363 40.2005 33.689 40.4095 33.6935C43.9917 33.698 47.5738 33.6897 51.1566 33.698C51.63 33.7218 52.0931 33.6003 52.5646 33.5784C53.7713 33.4279 55.0088 33.0799 55.9422 32.2591C56.6767 31.5194 57.0357 30.4832 57.1148 29.4592C57.2183 28.9534 57.2222 28.4323 57.1264 27.9251C57.035 26.7769 56.6336 25.5509 55.681 24.8337C54.5296 23.9441 53.0367 23.7402 51.6287 23.6064C48.0472 23.6064 44.4651 23.6064 40.8823 23.6064C40.6411 23.6122 40.396 23.5865 40.1593 23.6386L40.1587 23.6399ZM63.0672 5.6514C62.8967 5.30598 63.2344 4.8911 63.6011 4.93355C65.3616 4.93355 67.1234 4.94192 68.8846 4.9297C69.0897 4.9194 69.3155 4.94835 69.4249 5.14839C69.8423 5.79162 70.18 6.48052 70.5183 7.16813C70.73 7.60745 71.0014 8.01461 71.2137 8.45458C71.6048 9.30171 72.1142 10.089 72.5001 10.9387C73.0147 11.8199 73.4283 12.7591 73.9467 13.6403C74.3912 14.5923 74.9508 15.4844 75.3895 16.4396C75.7716 17.1073 76.1183 17.7904 76.4643 18.4799C76.9037 19.192 77.2105 19.9729 77.6447 20.6881C77.947 21.2143 78.1715 21.7816 78.4809 22.3013C78.8777 22.9606 79.1556 23.683 79.5525 24.341C79.9493 24.999 80.2124 25.7291 80.6357 26.371C80.8286 26.7274 81.4455 26.728 81.6359 26.371C82.0572 25.7278 82.3248 25.001 82.7178 24.341C83.0683 23.7621 83.3154 23.1311 83.6601 22.5503C84.0564 21.8903 84.3349 21.1693 84.7324 20.5093C85.1241 19.8236 85.4296 19.091 85.8432 18.4169C86.3257 17.4051 86.9084 16.446 87.387 15.4317C87.7774 14.7685 88.1061 14.0738 88.4624 13.3933C88.8793 12.7211 89.17 11.9782 89.5759 11.3047C89.9284 10.6994 90.1869 10.0459 90.5407 9.44322C90.8945 8.84052 91.155 8.19021 91.5178 7.59266C92.0028 6.77704 92.3154 5.85594 92.8885 5.09565C93.0171 4.89496 93.2744 4.93999 93.4796 4.92905C95.2093 4.94513 96.9395 4.92905 98.6692 4.93355C98.904 4.90718 99.1021 5.0622 99.2134 5.25903C99.3233 5.5845 99.0847 5.88038 98.9381 6.14797C93.4376 16.4272 87.9438 26.7096 82.4566 36.9952C82.1415 37.5825 81.8777 38.2174 81.3882 38.6914H80.974C80.3488 38.3003 80.1378 37.5375 79.7815 36.9322C74.2068 26.5068 68.6356 16.0798 63.0678 5.6514H63.0672Z" fill="#004580"/>
</svg>
