<svg xmlns="http://www.w3.org/2000/svg" viewBox="0 0 200.00001 58">
<style
   type="text/css"
   id="style2">
	.st0{fill:#004192;}
	.st1{fill:#F96A53;}
</style>
<g
   id="Clip-2"
   transform="translate(0,-140.39999)">
</g>
<g
   id="g19"
   transform="matrix(1.0644143,0,0,1.0644143,-3.9154418,-77.318465)">
	<path
   class="st0"
   d="m 69.5,98.5 c 4.4,1.5 6.9,4 7.2,8.4 0.4,4.9 -1.7,8.5 -5.7,11.2 -2.3,1.6 -4.8,2.5 -7.5,3 -5.1,0.9 -10.2,1 -15.4,0.2 -5.1,-0.8 -7.4,-4 -6.3,-9.1 2.3,-10.6 4.7,-21.2 7.2,-31.8 0.2,-0.8 0.4,-1.5 1.5,-1.5 5.8,-0.5 11.5,-1.4 17.3,-0.4 2.1,0.4 4.2,0.9 6.1,1.8 6.6,3.2 7.2,11.1 1.4,15.5 -1.5,1.2 -3.4,2 -5.8,2.7 z m -15.1,4.1 c -0.8,3.4 -1.5,6.6 -2.2,9.7 -0.3,1.2 -0.1,2.1 1.3,2.2 3.3,0.2 6.6,0 9.6,-1.7 2.3,-1.3 3.2,-3.4 2.9,-6 -0.3,-2.5 -2.1,-3.5 -4.3,-4.2 -2.3,-0.6 -4.7,0.5 -7.3,0 z m 7.3,-17.3 c -1,0.7 -3,-0.9 -3.6,1.2 -0.7,2.4 -1.1,4.8 -1.7,7.3 -0.2,0.8 0.1,1.6 1,1.6 3.6,0.2 7.1,0.2 10,-2.3 2.8,-2.5 1.9,-6.3 -1.6,-7.4 -1.2,-0.4 -2.6,-0.4 -4.1,-0.4 z"
   id="path5"
   style="fill:#004192" />
	<path
   class="st0"
   d="m 155.5,85.9 c -2,-5.5 -7.1,-6.8 -12.3,-7.4 -4.8,-0.5 -9.7,-0.2 -14.5,0.3 -1.7,0.2 -2.5,0.8 -2.9,2.6 -2.8,13 -5.8,26 -8.7,38.9 -0.1,0.5 -0.4,1 0.3,1.6 1.1,0 2.5,0 3.8,0 4.8,0 6.3,-1.1 7.3,-5.8 0.6,-2.8 1.3,-5.6 1.9,-8.3 1,-0.4 1.8,-0.1 2.6,0 7,0.2 13.6,-0.9 18.7,-6.1 4.2,-4.5 6,-9.8 3.8,-15.8 z m -8.7,6.9 c -0.9,4.5 -4.8,7.3 -10.2,7.4 -3.5,0 -3.8,-0.4 -3,-3.9 0.6,-2.9 1.3,-5.7 1.8,-8.6 0.2,-1.4 0.9,-2 2.3,-2 1.5,0 2.9,-0.1 4.4,0.2 3.8,0.6 5.4,3.1 4.7,6.9 z"
   id="path7"
   style="fill:#004192" />
	<path
   class="st0"
   d="m 116.4,79.3 c -9.1,-3.3 -17.9,-2.7 -25.5,3.8 -7.2,6.3 -9.5,14.6 -8.6,23.9 0.5,5.3 2.8,9.8 7.6,12.5 6.1,3.5 12.6,3.6 19.2,1.7 1.5,-0.4 2.6,-1.5 3,-3 0.6,-2.3 1.1,-4.7 1.7,-7.3 -2.1,1.1 -3.7,2.1 -5.6,2.7 -6,1.9 -12,-0.4 -14,-5.4 -2.9,-6.9 1.2,-17.7 8.1,-20.9 5.6,-2.6 11,-1.4 16.5,1.6 0.3,-1.2 0.6,-2.3 0.9,-3.3 0.6,-3.4 -0.1,-5.1 -3.3,-6.3 z"
   id="path9"
   style="fill:#004192" />
	<path
   class="st1"
   d="m 24.6,82.5 c 5.4,2.7 9.7,6.6 12.9,11.7 1.9,3.1 1.7,6.6 -0.5,9.6 -4.5,6.3 -10.4,10.8 -17.3,14 C 15,120 9.9,117.5 8,112.4 c 2.8,-1.5 5.5,-3 8.1,-4.8 3.8,-2.8 7.1,-6 8.7,-10.5 2.2,-4.9 2.4,-9.8 -0.2,-14.6 z"
   id="path11"
   style="fill:#f96a53" />
	<path
   class="st1"
   d="m 173,82.5 c 5.4,2.7 9.7,6.7 12.9,11.7 1.9,3 1.8,6.4 -0.3,9.4 -4.5,6.4 -10.6,11.1 -17.6,14.3 -4.6,2.1 -9.6,-0.5 -11.5,-5.4 2.6,-1.4 5.3,-2.8 7.7,-4.6 3.9,-2.8 7.4,-6.1 9.1,-10.8 2.1,-4.9 2.3,-9.8 -0.3,-14.6 z"
   id="path13"
   style="fill:#f96a53" />
	<path
   class="st0"
   d="m 24.6,82.5 c 2.6,4.8 2.3,9.7 0.1,14.5 -3.4,-3.6 -7.6,-6.1 -12,-8.1 2.3,-6.3 7.6,-9 11.9,-6.4 z"
   id="path15"
   style="fill:#004192" />
	<path
   class="st0"
   d="m 173,82.5 c 2.6,4.8 2.5,9.7 0.2,14.6 -3.3,-3.6 -7.5,-6.1 -12.1,-8.2 1.5,-3.5 3.8,-6 7.2,-7.3 1.7,-0.7 3.3,-0.2 4.7,0.9 z"
   id="path17"
   style="fill:#004192" />
</g>
</svg>
