<svg xmlns="http://www.w3.org/2000/svg" viewBox="0 0 283.826 58">
<style
   type="text/css"
   id="style2">
	.st0{fill:#3B408D;}
	.st1{fill:#289448;}
</style>
<g
   id="g30"
   transform="matrix(1.6107383,0,0,1.6107383,-17.872245,-130.78524)">
	<path
   class="st0"
   d="m 17.9,84.3 c -2,0 -3.7,1.7 -3.7,3.7 v 26.1 h 26.4 c 2,0 3.7,-1.7 3.7,-3.7 V 84.3 Z M 37,106.6 21.4,109.3 V 93 L 37,90.3 Z"
   id="path4"
   style="fill:#3b408d" />
	<g
   id="g10">
		<polygon
   class="st1"
   points=""
   id="polygon6"
   style="fill:#289448" />
		<path
   class="st1"
   d="m 126.9,93.9 c -2.9,-0.8 -5.2,-0.3 -7.3,1.8 v -7.2 h -3.9 v 14 c 0,5 3.3,8.4 8.2,8.4 4.5,0 8.2,-3.4 8.1,-8.8 0.1,-4.2 -1.8,-7.3 -5.1,-8.2 z m -3,13.8 c -1.3,0 -2.5,-0.6 -3.3,-1.6 -0.8,-1.1 -1.1,-2.3 -1.1,-3.6 0,-1.6 0.1,-3 0.8,-4.1 0.9,-1.3 2.1,-2 3.5,-2 2.5,0 4.5,2.2 4.5,5.6 0.1,3.4 -1.9,5.7 -4.4,5.7 z"
   id="path8"
   style="fill:#289448" />
	</g>
	<path
   class="st1"
   d="m 112.5,93 h 1.1 v 3.9 h -1.1 v 0 0 c -0.8,0 -1.6,0.4 -2.2,0.9 -0.6,0.6 -0.9,1.3 -0.9,2.2 v 0 0 10.6 h -3.9 v -10.7 0 0 c 0,-1.9 0.8,-3.6 2.1,-4.9 1.3,-1.3 3,-2 4.9,-2 z"
   id="path12"
   style="fill:#289448" />
	<path
   class="st1"
   d="m 102.6,97.3 v 0 c -0.2,-0.4 -0.5,-0.8 -0.7,-1.1 -0.3,-0.3 -0.6,-0.7 -0.9,-1 -1.7,-1.5 -4.3,-2.3 -7.1,-1.5 v 0 h -0.1 v 0 c -3.5,1.1 -5.5,4.3 -5.6,7.9 v 0.1 0 c -0.2,4.3 2.3,8.2 6.8,9 0.3,0.1 0.7,0.1 1,0.1 0.3,0 0.7,0 1,0 v 0 c 1.1,0 4,-0.1 4.3,-1.7 0.1,-0.5 0.2,-1.8 0.1,-2.6 -0.9,0.5 -2.3,1.1 -4.1,1 -0.2,0 -0.5,0 -0.7,0 -0.2,0 -0.5,-0.1 -0.7,-0.1 v 0 c -1.7,-0.3 -3.2,-1.2 -3.9,-3 -0.1,-0.2 -0.1,-0.4 -0.2,-0.6 h 5.6 c 1.2,0 2.4,-0.2 3.4,-0.7 v 0 c 0.7,-0.3 1.2,-0.8 1.7,-1.3 0.5,-0.6 0.8,-1.4 0.8,-2.3 -0.1,-0.6 -0.3,-1.4 -0.7,-2.2 z m -5.1,3.7 h -5.8 c 0.3,-1.7 0.9,-3 1.7,-3.7 0.2,-0.2 0.4,-0.3 0.6,-0.4 0.2,-0.1 0.5,-0.2 0.7,-0.3 v 0 0 c 1.6,-0.5 3,0 3.9,1 0.2,0.2 0.4,0.4 0.5,0.6 0.1,0.2 0.2,0.4 0.3,0.5 v 0 c 0.9,1.7 -0.6,2.3 -1.9,2.3 z"
   id="path14"
   style="fill:#289448" />
	<path
   class="st1"
   d="m 81.6,88.7 v 4.5 h 6.3 l -0.1,1.4 c -0.1,1.3 -0.9,1.7 -2.3,1.7 h -3.8 v 8.2 0 c 0,0.2 0,0.8 0.1,1 0.3,1.3 1,1.6 2.2,1.7 1.2,0.2 3.1,-0.1 4,-0.5 0.1,1.4 0,3.3 -0.9,3.6 -0.8,0.3 -2.4,0.4 -3.5,0.4 -0.5,0 -1.1,-0.1 -1.6,-0.2 -0.9,-0.2 -2.2,-0.9 -2.9,-1.5 -1.2,-1.4 -1.3,-2.9 -1.3,-4.5 v -0.1 -15.7 z"
   id="path16"
   style="fill:#289448" />
	<path
   class="st1"
   d="m 66.4,93 h 1.4 v 0 0 c 1.9,0 3.7,0.8 4.9,2 1.3,1.3 2,3 2,4.9 v 0 0 10.6 h -3.9 v -10.6 0 0 c 0,-0.9 -0.4,-1.6 -0.9,-2.2 -0.6,-0.6 -1.4,-0.9 -2.2,-0.9 v 0 0 h -1.4 v 0 0 c -0.8,0 -1.6,0.4 -2.2,0.9 -0.5,0.6 -0.9,1.3 -0.9,2.2 v 0 0 10.6 h -3.9 v -10.6 0 0 c 0,-1.9 0.8,-3.6 2,-4.9 1.5,-1.3 3.2,-2 5.1,-2 z"
   id="path18"
   style="fill:#289448" />
	<polygon
   class="st1"
   points="56,88.3 56,110.6 52.1,110.6 52.1,88.3 "
   id="polygon20"
   style="fill:#289448" />
	<path
   class="st1"
   d="m 157.2,93 h 1.4 v 0 0 c 1.9,0 3.6,0.8 4.9,2 1.2,1.3 2,3 2,4.9 v 0 0 10.6 h -3.9 v -10.6 0 0 c 0,-0.9 -0.3,-1.6 -0.9,-2.2 -0.6,-0.6 -1.3,-0.9 -2.2,-0.9 v 0 0 h -1.4 v 0 0 c -0.9,0 -1.6,0.4 -2.2,0.9 -0.6,0.6 -0.9,1.3 -0.9,2.2 v 0 0 10.6 h -3.9 v -10.6 0 0 c 0,-1.9 0.8,-3.6 2,-4.9 1.4,-1.3 3.1,-2 5.1,-2 z"
   id="path22"
   style="fill:#289448" />
	<polygon
   class="st1"
   points="172.5,88.3 172.5,110.6 168.6,110.6 168.6,88.3 "
   id="polygon24"
   style="fill:#289448" />
	<polygon
   class="st1"
   points="180.4,110.5 184.2,110.5 176.4,101.7 183.4,93.8 179.5,93.8 172.5,101.7 "
   id="polygon26"
   style="fill:#289448" />
	<path
   class="st1"
   d="m 146.9,96.3 c -0.4,-0.8 -1,-1.4 -1.6,-1.9 -1.6,-1.2 -3.9,-1.4 -5.8,-1.2 -1.2,0.1 -3.3,0.4 -3.8,1.3 -0.2,0.4 -0.3,0.9 -0.3,1.4 v 1.5 c 1.5,-0.9 2.5,-1.1 3.9,-1.2 1,-0.1 2.3,0 3.1,0.3 0.7,0.2 1.1,0.8 1.3,1.3 0.3,0.6 0.5,1.8 0.4,2.6 -0.9,0.2 -3.3,-0.1 -4.6,0 -2.9,0.2 -5.4,1.5 -5.6,4.3 -0.3,4 3,6.2 7.3,6.1 1.1,0 2,-0.2 2.8,-0.6 2.6,-1.2 3.4,-3.4 3.4,-6 V 99 c -0.1,-0.7 -0.1,-1.8 -0.5,-2.7 z m -2.7,6.6 c 0,0.7 0,1.7 -0.2,2.4 -0.2,1 -0.7,1.8 -1.4,2.1 -0.9,0.4 -2,0.6 -3.5,0.4 v 0 0 c -1.3,-0.2 -2,-1.2 -1.9,-2.6 v -0.1 c 0.1,-0.6 0.5,-1.4 1.3,-1.7 0.8,-0.4 1.7,-0.5 3.2,-0.5 0.7,0 1.6,0.1 2.5,0 z"
   id="path28"
   style="fill:#289448" />
</g>
</svg>
