<svg xmlns="http://www.w3.org/2000/svg" viewBox="0 0 279.64803 58">
<style
   type="text/css"
   id="style2">
	.st0{fill:#DD1725;}
</style>
<g
   id="Clip-2"
   transform="translate(0,-140.39999)">
</g>
<path
   class="st0"
   d="M 14.659448,28.848101 C 13.140461,26.417722 12.836663,23.075949 12.836663,20.64557 12.836663,12.139241 20.4316,5 28.330334,5 h 24.911393 l -9.569621,9.721519 h -15.49367 c -6.227849,0 -13.670886,6.227848 -13.518988,14.126582 z m 9.417722,-6.987342 c 0.607595,-1.974683 2.582278,-4.70886 4.556962,-6.075949 -3.64557,0 -7.594937,1.670886 -10.78481,6.075949 z M 29.089828,17 c -1.367089,1.21519 -2.886076,3.189873 -3.797468,4.860759 h 7.443038 C 31.975904,20.189873 30.456917,18.21519 29.089828,17 Z m -11.848101,6.075949 c -0.911393,1.670886 -1.367089,3.493671 -1.518988,5.468355 h 6.987342 c 0,-1.822785 0.303798,-3.797469 0.911393,-5.468355 z m 7.594936,0 c -0.607594,1.670886 -0.911392,3.493671 -1.063291,5.468355 h 10.481013 c -0.151899,-1.822785 -0.455696,-3.797469 -1.063291,-5.468355 z m 15.189874,-1.21519 C 37.140461,17.455696 33.039195,15.78481 29.545524,15.78481 c 1.822785,1.367089 3.64557,3.949367 4.556962,6.075949 z m -5.468355,1.21519 c 0.607595,1.670886 0.911393,3.493671 0.911393,5.468355 h 6.987342 c -0.151899,-1.822785 -0.607595,-3.797469 -1.518988,-5.468355 z m -16.70886,13.063292 c 3.037974,4.556962 7.13924,6.075949 10.78481,6.075949 -1.822785,-1.367089 -3.949367,-4.101266 -4.556962,-6.075949 z m 11.240506,5.012658 c 1.367089,-1.21519 2.886076,-3.189874 3.64557,-5.012658 H 25.29236 c 0.759493,1.670886 2.430379,3.797468 3.797468,5.012658 z m -5.468354,-6.07595 c -0.607595,-1.822784 -0.911393,-3.797468 -0.911393,-5.468354 h -6.987342 c 0.151899,1.822785 0.607595,3.64557 1.518988,5.468354 z m 9.56962,0 c 0.607595,-1.670886 0.911392,-3.645569 1.063291,-5.468354 H 23.773372 c 0.151899,1.822785 0.455697,3.64557 1.063291,5.468354 z m 0.911392,1.063292 c -0.759493,1.974683 -2.734177,4.70886 -4.556962,6.075949 3.493671,0 7.594937,-1.518987 10.481013,-6.075949 z m 6.683545,-1.063292 c 0.911392,-1.670886 1.367088,-3.645569 1.518987,-5.468354 h -6.987342 c 0,1.822785 -0.303797,3.64557 -0.911392,5.468354 z M 43.520208,29 C 43.672106,37.202532 36.229069,43.43038 30.00122,43.43038 H 14.659448 L 5.0898276,53 H 30.00122 c 7.898735,0 15.493671,-7.139241 15.493671,-15.64557 0,-2.430379 -0.303797,-5.772152 -1.822785,-8.202531 z m 72.607582,13.21519 c -6.37974,0 -11.0886,-3.949367 -11.0886,-9.873418 0,-5.92405 4.86076,-10.025316 11.0886,-10.025316 6.22785,0 11.08861,3.949367 11.08861,10.025316 0,5.924051 -4.70886,9.873418 -11.08861,9.873418 z M 226.40628,22.772152 v 18.987342 h -6.37975 l -0.1519,-1.974684 h -0.1519 c -0.75949,0.607595 -2.27848,2.278481 -6.37975,2.278481 -4.55696,0 -8.65822,-3.949367 -8.65822,-10.025316 0,-5.468355 3.64557,-10.025317 9.11392,-10.025317 3.79747,0 5.31646,1.670886 5.77215,2.126583 h 0.1519 v -1.670887 h 6.68355 z m -49.67089,0 v 18.987342 h -6.37975 l -0.1519,-1.974684 h -0.15189 c -0.7595,0.607595 -2.27849,2.278481 -6.37975,2.278481 -4.55696,0 -8.65823,-3.949367 -8.65823,-10.025316 0,-5.468355 3.64557,-10.025317 9.11392,-10.025317 3.79747,0 5.31646,1.670886 5.77216,2.126583 h 0.1519 v -1.670887 z m -31.29114,0 h 6.68354 v 19.13924 h -6.68354 z m 35.5443,18.987342 V 14.873418 h 6.68355 v 9.265823 0 c 0.45569,-0.303798 2.58228,-1.822785 5.77215,-1.822785 5.16456,0 8.96203,4.101266 8.96203,9.56962 0,6.835443 -4.25317,10.329114 -8.96203,10.329114 -3.64557,0 -5.46835,-1.670886 -5.92405,-2.126582 h -0.1519 l -0.1519,1.822784 h -6.22785 z M 116.12779,37.35443 c 2.73418,0 4.25317,-2.430379 4.25317,-5.164557 0,-2.886076 -1.51899,-5.164557 -4.25317,-5.164557 -2.88607,0 -4.25316,2.43038 -4.25316,5.164557 0,2.886076 1.51899,5.164557 4.25316,5.164557 z m 26.12659,-0.759493 c -0.3038,0.151898 -1.21519,0.303797 -1.82279,0.303797 -1.36709,0 -2.88607,-0.607595 -2.88607,-2.886076 v -6.379747 h 4.10126 v -4.860759 h -4.10126 v -6.075949 h -6.68355 v 6.075949 h -2.88607 v 4.860759 h 2.88607 v 7.594937 c 0,4.101266 1.97469,7.139241 6.83544,7.139241 1.36709,0 2.73418,-0.151899 3.64557,-0.303798 z m -75.341767,4.556962 c 1.822785,0.607595 4.708861,1.063291 7.594937,1.063291 5.620253,0 11.240506,-1.974684 11.240506,-8.202532 0,-8.506329 -11.696203,-7.291139 -11.696203,-10.78481 0,-1.670886 1.822785,-2.126582 3.64557,-2.126582 2.43038,0 5.620253,1.21519 6.227848,1.518987 l 0.607595,-5.92405 C 82.86198,16.088608 80.279701,15.78481 77.697423,15.78481 c -5.620253,0 -11.088608,2.126582 -11.088608,7.746836 0,8.35443 11.696203,6.683544 11.696203,11.088607 0,1.670886 -1.670886,2.278481 -3.797468,2.278481 -2.886076,0 -5.772152,-1.518987 -6.987342,-1.974683 z M 211.824,32.037975 c 0,3.189873 1.82278,5.164557 4.10126,5.164557 2.12659,0 4.10127,-1.974684 4.10127,-4.86076 0,-2.886076 -1.82279,-5.012658 -4.10127,-5.012658 -2.43038,0 -4.10126,2.126582 -4.10126,4.708861 z m -49.67089,0 c 0,3.189873 1.82279,5.164557 4.10127,5.164557 2.12658,0 4.10126,-1.974684 4.10126,-4.86076 0,-2.886076 -1.82278,-5.012658 -4.10126,-5.012658 -2.43038,0 -4.10127,2.126582 -4.10127,4.708861 z M 103.3683,23.075949 c -0.4557,-0.151898 -2.27848,-0.759493 -4.708857,-0.759493 -5.92405,0 -10.481007,3.797468 -10.481007,10.025316 0,5.620253 3.949367,10.025317 10.177207,10.025317 2.582277,0 4.556957,-0.759494 5.012657,-0.759494 l -0.3038,-5.620253 c -0.45569,0.303797 -1.82278,0.911392 -3.341767,0.911392 -2.73418,0 -4.55696,-1.822785 -4.55696,-4.556962 0,-2.734177 2.12658,-4.556962 4.70886,-4.556962 1.518987,0 2.734177,0.759494 3.341767,0.911393 z m 151.29115,18.683545 h 6.68354 v -8.810127 0 l 5.92405,8.810127 h 7.29114 l -7.13924,-10.177216 6.83544,-8.962025 h -7.29113 l -5.77215,7.898734 v 0 -15.645569 h -6.68356 v 26.886076 z m -23.8481,0 h 6.37975 v -9.873418 c 0,-2.278481 1.51898,-3.949367 3.49367,-3.949367 2.27848,0 3.49367,1.518987 3.49367,3.949367 v 9.873418 h 6.37974 V 30.21519 c 0,-4.253165 -2.73417,-8.050633 -7.89873,-8.050633 -3.34177,0 -5.16456,1.822785 -5.92405,2.582278 h -0.1519 v -2.126582 h -5.77215 z M 148.78602,13.050633 c -2.12658,0 -3.64557,1.670886 -3.79747,3.797468 0,2.126583 1.67089,3.64557 3.79747,3.797469 2.12658,0 3.64557,-1.670886 3.79747,-3.797469 0,-2.126582 -1.67089,-3.797468 -3.79747,-3.797468 z m 46.78481,19.13924 c 0,-2.582278 -1.51898,-4.860759 -3.94936,-4.860759 -2.27849,0 -3.94937,1.974683 -3.94937,4.860759 0,2.886076 1.51899,4.86076 3.94937,4.86076 2.27848,0 3.94936,-1.822785 3.94936,-4.86076 z"
   id="path5"
   style="fill:#dd1725;stroke-width:1.5189873" />
</svg>
