<svg xmlns="http://www.w3.org/2000/svg" xmlns:xlink="http://www.w3.org/1999/xlink" width="1080" zoomAndPan="magnify" viewBox="0 0 810 1012.49997" height="1350" preserveAspectRatio="xMidYMid meet" version="1.0"><path fill="#02997d" d="M 312.460938 553.519531 C 317.621094 555.769531 320.386719 557.820312 323.863281 562.195312 C 327.265625 568.089844 327.71875 574.699219 328.613281 581.351562 C 333.5625 612.257812 346.167969 639.105469 365.84375 663.488281 C 386.980469 688.925781 413.78125 709.042969 444.945312 720.566406 C 479.738281 732.75 516.496094 738.132812 553.199219 731.507812 C 557.292969 730.679688 561.304688 729.707031 565.363281 728.6875 L 571.242188 727.246094 C 602.316406 718.570312 631.152344 703.625 654.007812 680.808594 C 656.644531 678.089844 659.273438 675.363281 661.890625 672.632812 L 665.765625 668.875 C 685.320312 648.738281 698.328125 623.351562 705.390625 596.335938 C 707.371094 588.4375 708.960938 580.457031 710.15625 572.398438 C 710.792969 568.441406 711.289062 565.832031 713.511719 562.496094 C 716.261719 559.652344 719.082031 557.621094 722.613281 555.855469 C 728.769531 555.382812 732.890625 555.609375 738.667969 557.898438 C 742.851562 560.527344 742.851562 560.527344 745.964844 565.195312 C 748.898438 588.515625 740.621094 612.023438 731.914062 633.28125 C 720.0625 660.9375 702.054688 684.417969 680.574219 705.332031 L 678.234375 707.753906 C 653.339844 733.367188 618.921875 750.046875 585.023438 760.226562 C 543.28125 771.964844 500.253906 772.238281 458.226562 761.675781 C 415.0625 749.214844 376.707031 727.761719 345.25 695.445312 C 322.488281 671.179688 303.886719 639.066406 295.796875 606.8125 L 294.457031 601.007812 L 293.316406 596.273438 C 291.070312 585.742188 289.671875 574.320312 291.34375 563.640625 C 294.582031 558.746094 296.714844 556.292969 301.953125 553.617188 C 306.914062 552.742188 306.914062 552.742188 312.460938 553.519531 " fill-opacity="1" fill-rule="nonzero"/><path fill="#ffffff" d="M 524.980469 379.324219 C 537.636719 383.882812 549.492188 390.722656 559.136719 400.148438 C 568.148438 411.40625 575.304688 423.203125 577.816406 437.519531 C 579.011719 453.691406 579.898438 471.324219 573.640625 486.523438 C 566.566406 500.109375 557.363281 510.796875 545.121094 520.042969 C 531.265625 528.523438 517.519531 531.582031 501.390625 532.4375 C 482.394531 532.628906 466.90625 526.898438 450.152344 518.484375 L 450.273438 522.910156 C 450.40625 528.359375 450.503906 533.808594 450.578125 539.257812 C 450.617188 541.613281 450.671875 543.964844 450.738281 546.316406 C 450.832031 549.710938 450.878906 553.105469 450.910156 556.5 L 451.035156 562.675781 C 450.195312 568.035156 449.726562 569.554688 446.539062 573.566406 C 442.367188 577.652344 442.367188 577.652344 437.113281 580.085938 C 431.46875 580.765625 431.46875 580.765625 425.628906 578.917969 C 418.382812 574.875 418.382812 574.875 415.898438 571.425781 C 414.480469 566.859375 414.140625 562.71875 414.125 557.949219 L 414.09375 553.558594 L 414.089844 548.773438 L 414.066406 543.707031 C 414.046875 538.171875 414.03125 532.640625 414.027344 527.109375 L 414 515.578125 C 413.984375 507.519531 413.972656 499.457031 413.96875 491.398438 C 413.957031 481.070312 413.921875 470.742188 413.878906 460.414062 C 413.847656 452.472656 413.839844 444.535156 413.835938 436.59375 C 413.832031 432.785156 413.820312 428.976562 413.800781 425.171875 C 413.773438 419.84375 413.777344 414.519531 413.789062 409.191406 L 413.742188 404.425781 C 413.78125 397.835938 414.082031 393.046875 416.449219 386.832031 C 419.011719 383.023438 419.011719 383.023438 423.195312 380.007812 C 428.691406 378.242188 432.242188 377.941406 437.863281 378.886719 C 442.644531 380.546875 445.332031 383.964844 448.59375 387.695312 L 453.265625 389.25 C 457.949219 387.46875 457.949219 387.46875 462.996094 384.871094 C 482.460938 375.253906 503.945312 373.320312 524.980469 379.324219 M 471.949219 412.605469 C 464.78125 417.847656 458.207031 423.878906 453.265625 431.289062 C 448.214844 443.375 448.761719 457.363281 450.152344 470.21875 C 452.179688 477.457031 455.703125 481.820312 460.734375 487.253906 C 467.703125 493.933594 475.195312 498.453125 484.402344 501.359375 C 495.046875 503.945312 505.058594 502.660156 515.542969 499.800781 C 523.902344 496.875 530.503906 492.335938 536.492188 485.8125 C 541.011719 479.90625 543.550781 474.382812 545.121094 467.101562 C 546.402344 456.660156 546.671875 446.019531 543.75 435.851562 C 539.746094 427.183594 533.988281 420.003906 526.441406 414.164062 C 519.003906 409.597656 511.996094 406.730469 503.269531 406.007812 C 491.566406 405.738281 482.167969 406.628906 471.949219 412.605469 M 331.09375 379.914062 C 336.648438 382.15625 341.972656 384.730469 347.246094 387.558594 C 350.65625 389.433594 350.65625 389.433594 355.179688 390.808594 L 358.875 386.234375 C 361.269531 383.273438 362.640625 381.625 366.078125 379.910156 C 370.652344 379.449219 374.078125 379.15625 378.53125 379.910156 C 382.476562 382.097656 384.691406 384.355469 387.875 387.695312 C 389.734375 393.269531 389.695312 398.375 389.730469 404.183594 L 389.769531 407.820312 C 389.804688 411.792969 389.835938 415.765625 389.855469 419.742188 L 389.882812 423.859375 C 389.921875 431.046875 389.953125 438.234375 389.976562 445.421875 C 389.996094 451.371094 390.039062 457.316406 390.101562 463.261719 C 390.179688 470.445312 390.21875 477.628906 390.230469 484.8125 C 390.238281 487.546875 390.261719 490.28125 390.300781 493.015625 C 390.351562 496.84375 390.351562 500.675781 390.339844 504.507812 L 390.417969 507.914062 C 390.378906 511.109375 390.378906 511.109375 389.429688 516.929688 C 387.167969 520.671875 384.800781 523.144531 381.644531 526.269531 C 377.539062 528.324219 373.769531 528.234375 369.238281 528.167969 C 366.078125 527.828125 366.078125 527.828125 361.699219 525.882812 C 358.300781 523.164062 356.152344 520.4375 353.621094 516.929688 L 350.761719 518.808594 C 336.640625 527.738281 323.851562 531.535156 307.183594 532.488281 C 292.554688 532.945312 279.21875 529.785156 265.945312 523.640625 C 253.769531 517.035156 244.761719 509.09375 237.046875 497.5625 C 230.300781 486.300781 226.386719 474.6875 225.636719 461.550781 C 225.441406 444.980469 226.601562 429.023438 234.761719 414.15625 C 243.042969 401.847656 253.585938 391.964844 266.433594 384.578125 C 286.199219 375.128906 310.058594 373.128906 331.09375 379.914062 M 280.445312 412.605469 C 273.941406 417.15625 268.363281 421.863281 264.234375 428.710938 C 259.101562 439.78125 257.695312 450.296875 258.648438 462.433594 C 260.347656 471.980469 263.589844 480.117188 269.789062 487.625 C 276.617188 494.363281 283.941406 498.609375 293.1875 501.175781 C 304.050781 503.195312 313.519531 503.3125 324.039062 499.800781 C 332.40625 496.574219 338.300781 492.597656 344.28125 485.789062 L 347.589844 482.089844 C 352.453125 475.277344 354.929688 469.332031 355.855469 461.082031 C 355.890625 459 355.890625 456.921875 355.859375 454.839844 L 355.828125 451.53125 C 355.589844 443.867188 354.472656 437.730469 350.800781 431.003906 C 344.507812 421.382812 337.203125 414.972656 327.152344 409.492188 C 312.046875 403.433594 294.472656 404.210938 280.445312 412.605469 M 192.121094 331.0625 C 202.410156 330.792969 202.410156 330.792969 207.199219 333.113281 C 209.703125 335.046875 209.703125 335.046875 213.5 339.425781 C 214.976562 344.804688 215.253906 349.894531 215.261719 355.453125 L 215.273438 360.554688 L 215.25 366.1875 L 215.226562 372.164062 C 215.195312 378.023438 215.144531 383.882812 215.089844 389.742188 C 215.054688 394.308594 215.023438 398.875 214.996094 403.441406 C 214.9375 412.085938 214.84375 420.730469 214.730469 429.375 C 214.6875 432.835938 214.65625 436.292969 214.636719 439.75 C 214.484375 461.785156 213.640625 479.097656 202.894531 498.730469 C 196.292969 508.929688 189.894531 515.695312 179.019531 521.40625 C 162.773438 529.605469 147.503906 532.5625 129.425781 532.5 C 116.152344 531.648438 103.703125 528.0625 92.058594 521.597656 C 79.375 512.417969 69.476562 500.429688 62.574219 486.371094 C 60.492188 479.761719 60.140625 475.578125 60.921875 468.660156 C 63.714844 463.894531 66.023438 461.542969 70.75 458.734375 C 76.410156 457.417969 80.210938 457.8125 85.832031 459.316406 C 91.441406 463.492188 94.15625 467.839844 96.925781 474.109375 C 97.90625 476.441406 98.878906 478.777344 99.84375 481.117188 C 101.796875 485.414062 103.472656 488.085938 107.191406 490.988281 C 114.742188 496 121.992188 499.183594 131.117188 500.140625 C 141.648438 500.585938 151.097656 498.164062 160.582031 493.632812 C 165.164062 490.832031 167.855469 488.144531 170.691406 483.542969 C 175.601562 473.925781 177.917969 466.234375 177.933594 455.429688 L 177.957031 451.835938 C 177.976562 449.261719 177.988281 446.6875 178 444.113281 C 178.019531 440.035156 178.046875 435.957031 178.082031 431.882812 C 178.179688 420.289062 178.261719 408.695312 178.316406 397.097656 C 178.347656 390.007812 178.402344 382.914062 178.472656 375.820312 C 178.492188 373.121094 178.507812 370.421875 178.511719 367.722656 C 178.519531 363.9375 178.554688 360.15625 178.597656 356.375 L 178.582031 353.011719 C 178.671875 347.714844 179.363281 343.800781 181.332031 338.851562 C 184.28125 334.175781 186.5625 331.96875 192.121094 331.0625 " fill-opacity="1" fill-rule="nonzero"/><path fill="#02997d" d="M 437.855469 378.886719 C 440.808594 379.910156 440.808594 379.910156 445.382812 383.800781 L 448.59375 387.695312 L 450.152344 389.25 C 450.351562 393.015625 450.457031 396.734375 450.496094 400.5 L 450.550781 404.078125 C 450.605469 408.023438 450.65625 411.972656 450.699219 415.921875 L 450.808594 424.25 C 450.882812 430.117188 450.953125 435.980469 451.019531 441.847656 C 451.085938 447.761719 451.160156 453.679688 451.246094 459.597656 C 451.523438 479.226562 451.710938 498.855469 451.707031 518.484375 L 451.707031 522.359375 C 451.703125 529.511719 451.636719 536.660156 451.507812 543.804688 C 451.453125 546.941406 451.433594 550.078125 451.417969 553.214844 C 451.074219 566.445312 451.074219 566.445312 448.515625 571.605469 C 445.179688 575.84375 442.003906 577.820312 437.113281 580.085938 C 431.46875 580.765625 431.46875 580.765625 425.628906 578.917969 C 418.382812 574.875 418.382812 574.875 415.898438 571.425781 C 414.480469 566.859375 414.140625 562.71875 414.125 557.949219 L 414.09375 553.558594 L 414.089844 548.773438 L 414.066406 543.707031 C 414.046875 538.171875 414.03125 532.640625 414.027344 527.109375 L 414 515.578125 C 413.984375 507.519531 413.972656 499.457031 413.96875 491.398438 C 413.957031 481.070312 413.921875 470.742188 413.878906 460.414062 C 413.847656 452.472656 413.839844 444.535156 413.835938 436.59375 C 413.832031 432.785156 413.820312 428.976562 413.800781 425.171875 C 413.773438 419.84375 413.777344 414.519531 413.789062 409.191406 L 413.742188 404.425781 C 413.78125 397.839844 414.082031 393.046875 416.449219 386.832031 C 419.011719 383.023438 419.011719 383.023438 423.195312 380.007812 C 428.6875 378.242188 432.234375 377.9375 437.855469 378.886719 M 609.152344 378.449219 C 614.460938 380.179688 617.464844 382.191406 621.410156 386.136719 C 625.71875 393.722656 624.972656 401.914062 624.953125 410.378906 L 624.976562 415.398438 C 625 420.875 624.996094 426.347656 624.992188 431.820312 L 625.015625 443.238281 C 625.023438 451.21875 625.027344 459.195312 625.019531 467.171875 C 625.007812 477.394531 625.035156 487.617188 625.070312 497.839844 C 625.09375 505.699219 625.097656 513.558594 625.089844 521.421875 C 625.089844 525.1875 625.097656 528.957031 625.113281 532.726562 C 625.132812 538 625.125 543.265625 625.105469 548.539062 L 625.140625 553.25 C 625.089844 559.859375 624.792969 564.527344 622.324219 570.730469 C 619.664062 574.835938 617.953125 576.929688 613.628906 579.210938 C 608.472656 580.671875 608.472656 580.671875 602.730469 580.765625 C 598.378906 579.207031 595.667969 577.324219 591.832031 574.539062 C 589.675781 571.179688 588.769531 568.765625 588.320312 564.792969 L 588.308594 560.875 L 588.277344 556.355469 L 588.289062 551.433594 L 588.265625 546.222656 C 588.242188 540.53125 588.246094 534.839844 588.25 529.148438 L 588.226562 517.292969 C 588.21875 509.003906 588.214844 500.71875 588.226562 492.429688 C 588.230469 482.859375 588.21875 473.289062 588.183594 463.714844 C 588.152344 454.5 588.148438 445.285156 588.152344 436.066406 C 588.152344 432.148438 588.144531 428.230469 588.128906 424.3125 C 588.109375 418.835938 588.117188 413.363281 588.136719 407.886719 L 588.101562 402.972656 C 588.148438 396.625 588.246094 391.910156 590.765625 386.03125 C 593.386719 383.023438 593.386719 383.023438 598.546875 380.101562 C 604.285156 378.351562 604.285156 378.351562 609.152344 378.449219 " fill-opacity="1" fill-rule="nonzero"/><path fill="#ffffff" d="M 621.21875 226.441406 C 630.039062 229.625 636.445312 234.015625 643.101562 240.597656 C 648.210938 246.699219 650.996094 252.203125 652.550781 260.015625 C 654.230469 275.050781 652.003906 288.117188 646.324219 302.054688 C 637.339844 322.351562 626.304688 343.839844 610.511719 359.667969 C 607.027344 360.871094 607.027344 360.871094 604.285156 361.222656 C 585.023438 341.851562 568.777344 314.691406 561.570312 288.335938 C 559.0625 277.832031 557.507812 269.3125 560.273438 258.804688 C 563.15625 250.035156 566.304688 243.058594 573.148438 236.660156 C 588.535156 225.796875 602.816406 221.28125 621.21875 226.441406 M 588.25 249.722656 C 584.550781 253.226562 582.222656 256.605469 580.261719 261.304688 C 578.980469 266.191406 578.835938 270.222656 579.671875 275.203125 C 582.078125 281.878906 586.570312 286.539062 591.832031 291.15625 C 596.617188 294.175781 600.875 294.535156 606.425781 294.851562 C 611.347656 294.714844 615.070312 294.074219 619.464844 291.835938 C 624.183594 288.679688 627.839844 285.117188 630.9375 280.347656 C 633.109375 275.277344 633.265625 270.714844 632.96875 265.25 C 632.417969 261.164062 632.417969 261.164062 629.683594 256.316406 C 626.128906 252.28125 622.71875 249.0625 618.296875 246 C 607.609375 242.4375 597.480469 243.054688 588.25 249.722656 M 512.425781 602.566406 C 518.71875 602.121094 524.832031 601.914062 531.109375 602.566406 L 535.390625 605.777344 C 537.796875 611.429688 537.980469 615.148438 537.339844 621.25 L 535.585938 626.214844 L 534.222656 630.59375 L 535.683594 633.421875 C 537.792969 637.75 537.648438 640.984375 537.53125 645.773438 L 537.449219 650.417969 L 537.339844 653.949219 C 534.746094 654.015625 532.148438 654.011719 529.554688 653.949219 L 527.996094 652.390625 C 527.640625 649.511719 527.347656 646.625 527.121094 643.730469 L 526.726562 638.957031 L 526.441406 635.261719 L 520.210938 633.707031 L 520.210938 653.949219 L 512.425781 653.949219 C 510.207031 649.511719 510.667969 645.71875 510.664062 640.761719 L 510.65625 634.660156 L 510.667969 631.476562 C 510.675781 628.269531 510.667969 625.058594 510.65625 621.851562 L 510.664062 615.753906 L 510.667969 610.128906 C 510.871094 605.679688 510.871094 605.679688 512.425781 602.566406 M 520.210938 610.351562 L 520.210938 625.921875 L 527.996094 624.363281 L 527.996094 610.351562 Z M 439.253906 602.566406 L 447.035156 602.566406 L 453.265625 618.136719 L 459.492188 602.566406 L 467.277344 602.566406 L 466.363281 605.589844 C 465.519531 608.394531 464.691406 611.207031 463.882812 614.023438 C 462.605469 618.136719 462.605469 618.136719 460.269531 623.292969 C 459.351562 630.058594 460.722656 633.242188 463.191406 639.546875 L 465.464844 644.777344 C 467.277344 649.277344 467.277344 649.277344 467.277344 653.949219 L 459.492188 653.949219 L 453.265625 638.378906 C 450.875 641.964844 449.242188 644.882812 447.621094 648.792969 L 445.480469 653.949219 L 437.695312 653.949219 C 438.402344 651.515625 439.117188 649.082031 439.835938 646.648438 L 441.105469 642.304688 C 442.367188 638.378906 442.367188 638.378906 444.410156 634.386719 C 445.621094 630.09375 445.214844 627.914062 444.3125 623.585938 C 443.332031 619.707031 442.101562 615.914062 440.613281 612.199219 C 439.253906 608.792969 439.253906 608.792969 439.253906 602.566406 M 548.238281 602.566406 L 571.589844 602.566406 L 571.589844 610.351562 L 557.578125 610.351562 L 557.578125 624.363281 L 568.476562 625.921875 L 568.476562 632.148438 L 557.578125 632.148438 L 557.578125 646.164062 L 571.589844 646.164062 L 571.589844 653.949219 C 567.988281 653.988281 564.390625 654.019531 560.789062 654.046875 L 554.714844 654.101562 L 549.792969 653.949219 L 548.238281 652.390625 C 548.101562 648.707031 548.050781 645.023438 548.085938 641.339844 L 548.09375 637.996094 C 548.101562 634.457031 548.121094 630.917969 548.136719 627.378906 C 548.148438 624.988281 548.15625 622.59375 548.160156 620.203125 C 548.175781 614.324219 548.207031 608.445312 548.238281 602.566406 M 478.175781 602.566406 L 495.300781 602.566406 C 500.265625 605.484375 500.265625 605.484375 503.085938 610.351562 C 504.277344 617.546875 503.789062 623.769531 501.527344 630.691406 C 498.414062 633.707031 498.414062 633.707031 495.332031 634.511719 C 492.226562 634.925781 489.089844 635.109375 485.960938 635.261719 L 485.960938 653.949219 L 478.175781 653.949219 Z M 485.960938 610.351562 L 485.960938 627.476562 L 493.746094 627.476562 L 493.746094 610.351562 Z M 405 602.566406 L 428.355469 602.566406 L 426.796875 610.351562 L 414.339844 610.351562 L 414.339844 624.363281 L 423.683594 624.363281 L 425.238281 630.59375 L 414.339844 633.707031 L 414.339844 646.164062 L 419.597656 646.066406 C 425.238281 646.164062 425.238281 646.164062 428.355469 647.71875 L 428.355469 653.949219 L 405 653.949219 Z M 594.070312 601.980469 L 599.613281 602.566406 C 603.3125 605.289062 603.3125 605.289062 605.84375 608.792969 C 607.011719 612.296875 607.011719 612.296875 607.398438 615.023438 L 599.613281 616.578125 L 598.058594 610.351562 L 590.273438 610.351562 C 591.015625 614.390625 591.710938 617.539062 593.386719 621.25 C 595.898438 624.085938 595.898438 624.085938 598.835938 626.699219 C 602.953125 630.53125 604.402344 632.425781 606.71875 637.792969 C 607.398438 643.050781 607.398438 643.050781 606.332031 647.429688 C 604.285156 650.835938 604.285156 650.835938 599.613281 653.949219 C 594.265625 654.53125 594.265625 654.53125 588.714844 653.949219 C 585.019531 651.320312 585.019531 651.320312 582.488281 647.71875 C 581.320312 643.4375 581.320312 643.4375 580.933594 639.933594 L 588.714844 638.378906 L 591.832031 646.164062 L 596.5 646.164062 C 596.453125 640.992188 596.453125 640.992188 594.945312 635.261719 C 592.667969 633.28125 590.378906 631.304688 587.949219 629.511719 C 585.601562 627.476562 585.601562 627.476562 582.488281 622.222656 C 580.933594 616.578125 580.933594 616.578125 581.90625 610.644531 L 584.046875 605.679688 C 588.714844 602.566406 588.714844 602.566406 594.070312 601.980469 M 628.222656 602.078125 C 633.867188 602.566406 633.867188 602.566406 637.664062 605.195312 C 640.09375 608.792969 640.09375 608.792969 640.484375 613.074219 L 640.09375 616.578125 L 632.308594 615.023438 L 632.308594 610.351562 L 624.527344 610.351562 C 625.570312 616.039062 626.441406 619.835938 630.21875 624.292969 C 632.148438 626.175781 634.113281 628.027344 636.109375 629.84375 C 638.539062 632.148438 638.539062 632.148438 640.09375 635.261719 C 640.644531 639.996094 640.703125 644.550781 640.09375 649.277344 L 637.664062 652.488281 C 632.449219 654.496094 628.511719 654.542969 622.96875 653.949219 C 619.175781 652.195312 619.175781 652.195312 616.742188 649.277344 C 616.351562 644.316406 616.351562 644.316406 616.742188 639.933594 L 624.527344 638.378906 L 626.082031 646.164062 L 630.753906 646.164062 C 630.882812 641.421875 630.714844 638.265625 629.195312 633.707031 L 626.375 632.34375 C 621.71875 629.949219 619.609375 627.164062 616.742188 622.808594 C 615.28125 618.234375 615.28125 618.234375 615.183594 613.464844 C 617.230469 608.308594 617.230469 608.308594 619.855469 604.121094 C 622.96875 602.566406 622.96875 602.566406 628.222656 602.078125 " fill-opacity="1" fill-rule="nonzero"/><path fill="#02997d" d="M 661.890625 672.632812 L 666.5625 674.191406 L 663.449219 680.417969 L 655.664062 680.417969 Z M 616.742188 708.445312 L 619.855469 710 L 616.742188 714.671875 L 610.511719 711.558594 C 613.433594 709.90625 613.433594 709.90625 616.742188 708.445312 M 297.574219 610.351562 L 302.242188 611.90625 L 299.128906 618.136719 Z M 297.574219 610.351562 " fill-opacity="1" fill-rule="nonzero"/><path fill="#ffffff" d="M 627.640625 326.96875 L 632.308594 328.527344 L 629.195312 333.195312 Z M 627.640625 326.96875 " fill-opacity="1" fill-rule="nonzero"/></svg>